<?xml version="1.0" encoding="UTF-8" standalone="no"?>
<!-- Created with Inkscape (http://www.inkscape.org/) -->

<svg
   xmlns:dc="http://purl.org/dc/elements/1.1/"
   xmlns:cc="http://creativecommons.org/ns#"
   xmlns:rdf="http://www.w3.org/1999/02/22-rdf-syntax-ns#"
   xmlns:svg="http://www.w3.org/2000/svg"
   xmlns="http://www.w3.org/2000/svg"
   xmlns:sodipodi="http://sodipodi.sourceforge.net/DTD/sodipodi-0.dtd"
   xmlns:inkscape="http://www.inkscape.org/namespaces/inkscape"
   version="1.1"
   id="svg4037"
   xml:space="preserve"
   width="432"
   height="460.03012"
   viewBox="0 0 432 460.03012"
   sodipodi:docname="veneur_logo_TEMPORARY2.svg"
   inkscape:version="0.92.1 r"><metadata
     id="metadata4043"><rdf:RDF><cc:Work
         rdf:about=""><dc:format>image/svg+xml</dc:format><dc:type
           rdf:resource="http://purl.org/dc/dcmitype/StillImage" /><dc:title></dc:title></cc:Work></rdf:RDF></metadata><defs
     id="defs4041"><clipPath
       clipPathUnits="userSpaceOnUse"
       id="clipPath4053"><path
         d="M 0,386.273 H 324 V 0 H 0 Z"
         id="path4051"
         inkscape:connector-curvature="0" /></clipPath><clipPath
       clipPathUnits="userSpaceOnUse"
       id="clipPath4153"><path
         d="m 125.488,255.639 h 0.126 v -1.045 h -0.126 z"
         id="path4151"
         inkscape:connector-curvature="0" /></clipPath><clipPath
       clipPathUnits="userSpaceOnUse"
       id="clipPath4169"><path
         d="m 121.039,268.581 h 1.023 v -1.835 h -1.023 z"
         id="path4167"
         inkscape:connector-curvature="0" /></clipPath><clipPath
       clipPathUnits="userSpaceOnUse"
       id="clipPath4185"><path
         d="m 119.506,270.946 h 1.228 v -1.863 h -1.228 z"
         id="path4183"
         inkscape:connector-curvature="0" /></clipPath><clipPath
       clipPathUnits="userSpaceOnUse"
       id="clipPath4201"><path
         d="m 122.369,266.111 h 1.373 v -3.246 h -1.373 z"
         id="path4199"
         inkscape:connector-curvature="0" /></clipPath><clipPath
       clipPathUnits="userSpaceOnUse"
       id="clipPath4217"><path
         d="m 124.127,261.817 h 0.385 v -1.344 h -0.385 z"
         id="path4215"
         inkscape:connector-curvature="0" /></clipPath><clipPath
       clipPathUnits="userSpaceOnUse"
       id="clipPath4233"><path
         d="m 124.935,258.84 h 0.252 v -1.243 h -0.252 z"
         id="path4231"
         inkscape:connector-curvature="0" /></clipPath><clipPath
       clipPathUnits="userSpaceOnUse"
       id="clipPath4249"><path
         d="m 74.4722,195.979 h 2.4505 v -1.39 h -2.4505 z"
         id="path4247"
         inkscape:connector-curvature="0" /></clipPath><clipPath
       clipPathUnits="userSpaceOnUse"
       id="clipPath4265"><path
         d="m 84.7919,191.739 h 2.4944 v -0.442 h -2.4944 z"
         id="path4263"
         inkscape:connector-curvature="0" /></clipPath><clipPath
       clipPathUnits="userSpaceOnUse"
       id="clipPath4281"><path
         d="m 81.2757,192.742 h 2.3034 v -0.689 h -2.3034 z"
         id="path4279"
         inkscape:connector-curvature="0" /></clipPath><clipPath
       clipPathUnits="userSpaceOnUse"
       id="clipPath4297"><path
         d="m 77.8504,194.14 h 2.2993 v -0.983 h -2.2993 z"
         id="path4295"
         inkscape:connector-curvature="0" /></clipPath><clipPath
       clipPathUnits="userSpaceOnUse"
       id="clipPath4313"><path
         d="m 88.4068,191.125 h 3.7052 v -0.217 h -3.7052 z"
         id="path4311"
         inkscape:connector-curvature="0" /></clipPath></defs><sodipodi:namedview
     pagecolor="#ffffff"
     bordercolor="#666666"
     borderopacity="1"
     objecttolerance="10"
     gridtolerance="10"
     guidetolerance="10"
     inkscape:pageopacity="0"
     inkscape:pageshadow="2"
     inkscape:window-width="1494"
     inkscape:window-height="1059"
     id="namedview4039"
     showgrid="true"
     fit-margin-bottom="-55"
     fit-margin-top="0"
     fit-margin-left="0"
     fit-margin-right="0"
     inkscape:zoom="1.4523422"
     inkscape:cx="285.70004"
     inkscape:cy="196.19744"
     inkscape:window-x="857"
     inkscape:window-y="170"
     inkscape:window-maximized="0"
     inkscape:current-layer="g4045"><inkscape:grid
       type="xygrid"
       id="grid4377"
       originx="0"
       originy="-54.99988" /></sodipodi:namedview><g
     id="g4045"
     inkscape:groupmode="layer"
     inkscape:label="logofront"
     transform="matrix(1.3333333,0,0,-1.3333333,0,515.03012)"><g
       id="g4047"><g
         id="g4049"
         clip-path="url(#clipPath4053)"><g
           id="g4055"
           transform="translate(290.8554,106.7621)"><path
             d="m 0,0 c 0.004,0.005 0.008,0.01 0.012,0.015 -0.166,0.104 -0.342,0.192 -0.518,0.281 21.082,27.347 33.651,61.593 33.651,98.793 0,37.727 -12.932,72.412 -34.557,99.946 h 12.014 c 4.835,0 8.791,3.957 8.791,8.792 v 30.253 c 0,4.835 -3.956,8.791 -8.791,8.791 h -30.253 c -4.835,0 -8.792,-3.956 -8.792,-8.791 v -11.914 c -27.608,21.846 -62.473,34.923 -100.412,34.923 -89.47,0 -162,-72.53 -162,-162 0,-29.345 7.842,-56.843 21.486,-80.582 h -7.354 v -51.612 h 54.285 c 26.435,-18.748 58.708,-29.806 93.583,-29.806 42.374,0 80.932,16.287 109.801,42.921 0.144,-0.18 0.277,-0.369 0.44,-0.532 0.015,0.014 0.029,0.028 0.043,0.042 1.081,-1.087 2.537,-1.798 4.182,-1.798 h 11.243 c 3.294,0 5.989,2.695 5.989,5.989 V -5.046 C 2.843,-2.913 1.694,-1.058 0,0"
             style="fill:#ffffff;fill-opacity:1;fill-rule:nonzero;stroke:none"
             id="path4057"
             inkscape:connector-curvature="0" /></g><g
           id="g4059"
           transform="translate(290.8554,106.7621)"><path
             d="m 0,0 c 0.004,0.005 0.008,0.01 0.012,0.015 -0.166,0.104 -0.342,0.192 -0.518,0.281 -5.608,-7.275 -11.806,-14.067 -18.548,-20.286 0.144,-0.18 0.277,-0.369 0.44,-0.532 0.015,0.014 0.029,0.028 0.043,0.042 1.081,-1.087 2.537,-1.798 4.182,-1.798 h 11.243 c 3.294,0 5.989,2.695 5.989,5.989 V -5.046 C 2.843,-2.913 1.694,-1.058 0,0"
             style="fill:#ffcc19;fill-opacity:1;fill-rule:nonzero;stroke:none"
             id="path4061"
             inkscape:connector-curvature="0" /></g><g
           id="g4063"
           transform="translate(289.4438,305.7973)"><path
             d="m 0,0 h 12.013 c 4.836,0 8.792,3.957 8.792,8.792 v 30.253 c 0,4.835 -3.956,8.791 -8.792,8.791 h -30.252 c -4.836,0 -8.792,-3.956 -8.792,-8.791 V 27.131 C -16.986,19.183 -7.912,10.075 0,0"
             style="fill:#ffcc19;fill-opacity:1;fill-rule:nonzero;stroke:none"
             id="path4065"
             inkscape:connector-curvature="0" /></g><g
           id="g4067"
           transform="translate(289.4438,305.7973)"><path
             d="m 0,0 h -18.239 c -4.836,0 -8.792,3.957 -8.792,8.792 v 18.339 c -27.609,21.846 -62.473,34.923 -100.413,34.923 -89.47,0 -162,-72.53 -162,-162 0,-29.346 7.843,-56.843 21.487,-80.582 h 17.359 l 15.032,75.9 c -4.313,7.028 -6.646,15.162 -6.646,23.4 V -54.3 c 0,24.748 20.134,44.88 44.881,44.88 12.194,0 23.838,-5.053 32.253,-13.773 11.605,0.622 32.28,0.682 39.555,0.682 5.274,0 21.324,0 29.855,-12.779 1.694,-2.537 4.66,-4.051 7.936,-4.051 h 40.769 c 4.085,3.401 9.266,5.32 14.726,5.32 12.713,0 23.056,-10.343 23.056,-23.056 0,-7.122 -3.319,-13.705 -8.712,-17.996 -6.294,-48.702 -48.494,-86.193 -98.064,-86.193 -2.982,0 -10.176,-0.002 -13.194,-19.262 h 12.79 v -18.796 c 4.646,-1.19 8.902,-3.616 12.373,-7.109 l 0.575,-0.627 1.832,-2.178 c 3.546,-4.711 5.421,-10.304 5.421,-16.173 0,-14.849 -12.08,-26.928 -26.928,-26.928 -8.428,0 -16.163,3.835 -21.242,10.396 -0.5,0.458 -0.966,0.969 -1.392,1.53 -0.858,1.133 -1.512,2.472 -1.895,3.918 -0.638,1.407 -1.153,2.864 -1.538,4.355 h -71.872 c 26.435,-18.749 58.708,-29.806 93.583,-29.806 42.375,0 80.933,16.287 109.802,42.921 -0.815,1.023 -1.323,2.298 -1.323,3.7 v 11.243 c 0,3.294 2.694,5.989 5.988,5.989 h 11.243 c 0.951,0 1.841,-0.244 2.64,-0.647 21.081,27.348 33.65,61.594 33.65,98.794 C 34.556,-62.219 21.624,-27.535 0,0"
             style="fill:#ffcc19;fill-opacity:1;fill-rule:nonzero;stroke:none"
             id="path4069"
             inkscape:connector-curvature="0" /></g><g
           id="g4071"
           transform="translate(124.3656,6.458)"><path
             d="M 0,0 4.388,10.969 H 8.553 L 1.627,-6.261 h -3.254 l -6.926,17.23 h 4.165 z"
             style="fill:#ffffff;fill-opacity:1;fill-rule:nonzero;stroke:none"
             id="path4073"
             inkscape:connector-curvature="0" /></g><g
           id="g4075"
           transform="translate(142.5317,9.9834)"><path
             d="m 0,0 c -0.509,0.427 -1.13,0.641 -1.861,0.641 -0.731,0 -1.401,-0.222 -2.009,-0.666 -0.608,-0.444 -0.961,-1.043 -1.06,-1.799 H 0.888 C 0.805,-1.035 0.509,-0.428 0,0 m 3.55,-7.863 c -1.496,-1.414 -3.25,-2.12 -5.263,-2.12 -2.013,0 -3.677,0.62 -4.992,1.861 -1.315,1.24 -1.971,2.904 -1.971,4.991 0,2.087 0.669,3.747 2.009,4.98 1.339,1.232 2.92,1.848 4.745,1.848 1.823,0 3.372,-0.551 4.646,-1.651 1.273,-1.102 1.91,-2.613 1.91,-4.536 v -1.972 h -9.662 c 0.114,-0.724 0.493,-1.314 1.133,-1.774 0.642,-0.461 1.364,-0.691 2.17,-0.691 1.298,0 2.366,0.436 3.204,1.307 z"
             style="fill:#ffffff;fill-opacity:1;fill-rule:nonzero;stroke:none"
             id="path4077"
             inkscape:connector-curvature="0" /></g><g
           id="g4079"
           transform="translate(153.5253,7.5918)"><path
             d="M 0,0 V -7.395 H -3.697 V 5.867 H 0 V 4.388 c 1.118,1.133 2.375,1.701 3.771,1.701 1.397,0 2.568,-0.493 3.513,-1.48 0.945,-0.985 1.418,-2.3 1.418,-3.943 V -7.395 H 5.004 V 0.099 C 5.004,2.137 4.256,3.155 2.761,3.155 2.021,3.155 1.376,2.888 0.826,2.354 0.275,1.82 0,1.035 0,0"
             style="fill:#ffffff;fill-opacity:1;fill-rule:nonzero;stroke:none"
             id="path4081"
             inkscape:connector-curvature="0" /></g><g
           id="g4083"
           transform="translate(173.5155,9.9834)"><path
             d="m 0,0 c -0.509,0.427 -1.13,0.641 -1.861,0.641 -0.731,0 -1.401,-0.222 -2.009,-0.666 -0.608,-0.444 -0.961,-1.043 -1.06,-1.799 H 0.888 C 0.805,-1.035 0.509,-0.428 0,0 m 3.55,-7.863 c -1.496,-1.414 -3.25,-2.12 -5.263,-2.12 -2.013,0 -3.677,0.62 -4.992,1.861 -1.315,1.24 -1.971,2.904 -1.971,4.991 0,2.087 0.669,3.747 2.009,4.98 1.339,1.232 2.92,1.848 4.745,1.848 1.823,0 3.372,-0.551 4.646,-1.651 1.273,-1.102 1.91,-2.613 1.91,-4.536 v -1.972 h -9.662 c 0.114,-0.724 0.493,-1.314 1.133,-1.774 0.642,-0.461 1.364,-0.691 2.17,-0.691 1.298,0 2.366,0.436 3.204,1.307 z"
             style="fill:#ffffff;fill-opacity:1;fill-rule:nonzero;stroke:none"
             id="path4085"
             inkscape:connector-curvature="0" /></g><g
           id="g4087"
           transform="translate(189.3652,6.3105)"><path
             d="M 0,0 V 7.148 H 3.722 V -6.113 H 0 v 1.75 c -0.92,-1.298 -2.107,-1.948 -3.562,-1.948 -1.454,0 -2.674,0.457 -3.66,1.369 -0.986,0.912 -1.479,2.263 -1.479,4.054 v 8.036 h 3.722 v -7.222 c 0,-2.038 0.748,-3.057 2.243,-3.057 0.739,0 1.381,0.267 1.923,0.801 C -0.271,-1.796 0,-1.02 0,0"
             style="fill:#ffffff;fill-opacity:1;fill-rule:nonzero;stroke:none"
             id="path4089"
             inkscape:connector-curvature="0" /></g><g
           id="g4091"
           transform="translate(203.5634,10.2051)"><path
             d="m 0,0 c -1.102,0 -1.923,-0.391 -2.465,-1.171 -0.542,-0.781 -0.814,-1.811 -0.814,-3.094 v -5.743 H -6.976 V 3.254 h 3.697 v -1.75 c 0.477,0.542 1.072,1.002 1.787,1.38 0.715,0.378 1.443,0.575 2.182,0.592 L 0.715,0 Z"
             style="fill:#ffffff;fill-opacity:1;fill-rule:nonzero;stroke:none"
             id="path4093"
             inkscape:connector-curvature="0" /></g><g
           id="g4095"
           transform="translate(156.6343,92.7099)"><path
             d="M 0,0 C -0.967,-0.763 -1.84,-1.637 -2.603,-2.603 -1.84,-1.637 -0.966,-0.763 0,0"
             style="fill:#ffcc19;fill-opacity:1;fill-rule:nonzero;stroke:none"
             id="path4097"
             inkscape:connector-curvature="0" /></g><g
           id="g4099"
           transform="translate(152.9845,88.6003)"><path
             d="M 0,0 C 0.277,0.45 0.575,0.885 0.895,1.303 0.575,0.885 0.277,0.45 0,0"
             style="fill:#ffcc19;fill-opacity:1;fill-rule:nonzero;stroke:none"
             id="path4101"
             inkscape:connector-curvature="0" /></g><g
           id="g4103"
           transform="translate(159.9591,94.7241)"><path
             d="M 0,0 C -0.529,-0.236 -1.039,-0.504 -1.535,-0.795 -1.039,-0.505 -0.529,-0.236 0,0"
             style="fill:#ffcc19;fill-opacity:1;fill-rule:nonzero;stroke:none"
             id="path4105"
             inkscape:connector-curvature="0" /></g><g
           id="g4107"
           transform="translate(152.017,86.782)"><path
             d="M 0,0 C 0.236,0.529 0.505,1.039 0.795,1.535 0.504,1.039 0.236,0.529 0,0"
             style="fill:#ffcc19;fill-opacity:1;fill-rule:nonzero;stroke:none"
             id="path4109"
             inkscape:connector-curvature="0" /></g><g
           id="g4111"
           transform="translate(158.1408,93.7566)"><path
             d="M 0,0 C -0.45,-0.277 -0.885,-0.575 -1.303,-0.895 -0.885,-0.575 -0.45,-0.277 0,0"
             style="fill:#ffcc19;fill-opacity:1;fill-rule:nonzero;stroke:none"
             id="path4113"
             inkscape:connector-curvature="0" /></g><g
           id="g4115"
           transform="translate(261.1273,237.601)"><path
             d="M 0,0 Z"
             style="fill:#ff151a;fill-opacity:1;fill-rule:nonzero;stroke:none"
             id="path4117"
             inkscape:connector-curvature="0" /></g><g
           id="g4119"
           transform="translate(293.0177,363.0536)"><path
             d="m 0,0 h 11.243 c 3.294,0 5.988,2.695 5.988,5.988 v 11.243 c 0,3.294 -2.694,5.988 -5.988,5.988 H 0 c -3.293,0 -5.988,-2.694 -5.988,-5.988 V 5.988 C -5.988,2.695 -3.293,0 0,0"
             style="fill:#ffcc19;fill-opacity:1;fill-rule:nonzero;stroke:none"
             id="path4121"
             inkscape:connector-curvature="0" /></g><g
           id="g4123"
           transform="translate(161.7248,95.3831)"><path
             d="M 0,0 C -0.576,-0.179 -1.141,-0.381 -1.687,-0.621 -1.141,-0.381 -0.576,-0.178 0,0"
             style="fill:#ffcc19;fill-opacity:1;fill-rule:nonzero;stroke:none"
             id="path4125"
             inkscape:connector-curvature="0" /></g><g
           id="g4127"
           transform="translate(151.3069,84.8776)"><path
             d="M 0,0 H 0.014 C 0.028,0.046 0.037,0.093 0.051,0.139 0.036,0.091 0.014,0.048 0,0"
             style="fill:#ffcc19;fill-opacity:1;fill-rule:nonzero;stroke:none"
             id="path4129"
             inkscape:connector-curvature="0" /></g><g
           id="g4131"
           transform="translate(151.358,85.0164)"><path
             d="M 0,0 C 0.178,0.576 0.381,1.141 0.621,1.687 0.381,1.141 0.179,0.576 0,0"
             style="fill:#ffcc19;fill-opacity:1;fill-rule:nonzero;stroke:none"
             id="path4133"
             inkscape:connector-curvature="0" /></g><g
           id="g4135"
           transform="translate(169.2198,71.0095)"><path
             d="m 0,0 -10.697,3.993 c -1.989,-2.11 -3.383,-3.519 -4.385,-4.479 2.879,-3.563 7.28,-5.846 12.217,-5.846 8.676,0 15.708,7.033 15.708,15.709 0,1.664 -0.263,3.266 -0.743,4.771 z"
             style="fill:#ffcc19;fill-opacity:1;fill-rule:nonzero;stroke:none"
             id="path4137"
             inkscape:connector-curvature="0" /></g><g
           id="g4139"
           transform="translate(151.7922,74.5154)"><path
             d="m 0,0 c 1.327,1.325 2.996,3.058 4.474,4.642 l 1.022,1.096 10.56,-3.941 11.282,13.191 c -2.849,3.984 -7.503,6.591 -12.775,6.591 -1.564,0 -3.067,-0.246 -4.492,-0.674 V 10.362 H -0.472 C -0.9,8.938 -1.145,7.435 -1.145,5.871 -1.145,3.793 -0.732,1.815 0,0"
             style="fill:#ffcc19;fill-opacity:1;fill-rule:nonzero;stroke:none"
             id="path4141"
             inkscape:connector-curvature="0" /></g><g
           id="g4143"
           transform="translate(161.7248,95.3831)"><path
             d="M 0,0 C 0.045,0.014 0.093,0.023 0.139,0.037 V 0.051 C 0.091,0.037 0.047,0.015 0,0"
             style="fill:#ffcc19;fill-opacity:1;fill-rule:nonzero;stroke:none"
             id="path4145"
             inkscape:connector-curvature="0" /></g><g
           id="g4147"><g
             id="g4149" /><g
             id="g4161"><g
               clip-path="url(#clipPath4153)"
               id="g4159"><g
                 transform="translate(125.4879,255.6385)"
                 id="g4157"><path
                   d="M 0,0 C 0.044,-0.348 0.094,-0.694 0.127,-1.045 0.094,-0.694 0.043,-0.348 0,0"
                   style="fill:#0054ee;fill-opacity:1;fill-rule:nonzero;stroke:none"
                   id="path4155"
                   inkscape:connector-curvature="0" /></g></g></g></g><g
           id="g4163"><g
             id="g4165" /><g
             id="g4177"><g
               clip-path="url(#clipPath4169)"
               id="g4175"><g
                 transform="translate(121.0394,268.5815)"
                 id="g4173"><path
                   d="M 0,0 C 0.358,-0.601 0.701,-1.212 1.023,-1.836 0.702,-1.211 0.358,-0.602 0,0"
                   style="fill:#0054ee;fill-opacity:1;fill-rule:nonzero;stroke:none"
                   id="path4171"
                   inkscape:connector-curvature="0" /></g></g></g></g><g
           id="g4179"><g
             id="g4181" /><g
             id="g4193"><g
               clip-path="url(#clipPath4185)"
               id="g4191"><g
                 transform="translate(119.5061,270.946)"
                 id="g4189"><path
                   d="M 0,0 C 0.431,-0.605 0.835,-1.23 1.228,-1.863 0.836,-1.229 0.432,-0.605 0,0"
                   style="fill:#0054ee;fill-opacity:1;fill-rule:nonzero;stroke:none"
                   id="path4187"
                   inkscape:connector-curvature="0" /></g></g></g></g><g
           id="g4195"><g
             id="g4197" /><g
             id="g4209"><g
               clip-path="url(#clipPath4201)"
               id="g4207"><g
                 transform="translate(122.3688,266.1115)"
                 id="g4205"><path
                   d="M 0,0 C 0.515,-1.052 0.968,-2.137 1.373,-3.247 0.971,-2.136 0.513,-1.054 0,0"
                   style="fill:#0054ee;fill-opacity:1;fill-rule:nonzero;stroke:none"
                   id="path4203"
                   inkscape:connector-curvature="0" /></g></g></g></g><g
           id="g4211"><g
             id="g4213" /><g
             id="g4225"><g
               clip-path="url(#clipPath4217)"
               id="g4223"><g
                 transform="translate(124.1273,261.8171)"
                 id="g4221"><path
                   d="M 0,0 C 0.144,-0.441 0.259,-0.895 0.385,-1.344 0.26,-0.895 0.144,-0.442 0,0"
                   style="fill:#0054ee;fill-opacity:1;fill-rule:nonzero;stroke:none"
                   id="path4219"
                   inkscape:connector-curvature="0" /></g></g></g></g><g
           id="g4227"><g
             id="g4229" /><g
             id="g4241"><g
               clip-path="url(#clipPath4233)"
               id="g4239"><g
                 transform="translate(124.9347,258.8399)"
                 id="g4237"><path
                   d="M 0,0 C 0.093,-0.411 0.174,-0.827 0.252,-1.243 0.175,-0.826 0.093,-0.412 0,0"
                   style="fill:#0054ee;fill-opacity:1;fill-rule:nonzero;stroke:none"
                   id="path4235"
                   inkscape:connector-curvature="0" /></g></g></g></g><g
           id="g4243"><g
             id="g4245" /><g
             id="g4257"><g
               clip-path="url(#clipPath4249)"
               id="g4255"><g
                 transform="translate(76.9227,194.589)"
                 id="g4253"><path
                   d="M 0,0 C -0.838,0.429 -1.654,0.894 -2.45,1.39 -1.653,0.895 -0.839,0.428 0,0"
                   style="fill:#0054ee;fill-opacity:1;fill-rule:nonzero;stroke:none"
                   id="path4251"
                   inkscape:connector-curvature="0" /></g></g></g></g><g
           id="g4259"><g
             id="g4261" /><g
             id="g4273"><g
               clip-path="url(#clipPath4265)"
               id="g4271"><g
                 transform="translate(87.2863,191.2973)"
                 id="g4269"><path
                   d="M 0,0 C -0.84,0.123 -1.676,0.258 -2.494,0.442 -1.675,0.258 -0.84,0.122 0,0"
                   style="fill:#0054ee;fill-opacity:1;fill-rule:nonzero;stroke:none"
                   id="path4267"
                   inkscape:connector-curvature="0" /></g></g></g></g><g
           id="g4275"><g
             id="g4277" /><g
             id="g4289"><g
               clip-path="url(#clipPath4281)"
               id="g4287"><g
                 transform="translate(83.5791,192.0533)"
                 id="g4285"><path
                   d="M 0,0 C -0.778,0.206 -1.548,0.429 -2.303,0.689 -1.548,0.43 -0.779,0.206 0,0"
                   style="fill:#0054ee;fill-opacity:1;fill-rule:nonzero;stroke:none"
                   id="path4283"
                   inkscape:connector-curvature="0" /></g></g></g></g><g
           id="g4291"><g
             id="g4293" /><g
             id="g4305"><g
               clip-path="url(#clipPath4297)"
               id="g4303"><g
                 transform="translate(80.1497,193.1566)"
                 id="g4301"><path
                   d="M 0,0 C -0.781,0.3 -1.548,0.628 -2.299,0.984 -1.547,0.628 -0.782,0.3 0,0"
                   style="fill:#0054ee;fill-opacity:1;fill-rule:nonzero;stroke:none"
                   id="path4299"
                   inkscape:connector-curvature="0" /></g></g></g></g><g
           id="g4307"><g
             id="g4309" /><g
             id="g4321"><g
               clip-path="url(#clipPath4313)"
               id="g4319"><g
                 transform="translate(92.112,190.908)"
                 id="g4317"><path
                   d="M 0,0 C -1.253,0 -2.487,0.082 -3.705,0.217 -2.487,0.082 -1.253,0 0,0"
                   style="fill:#0054ee;fill-opacity:1;fill-rule:nonzero;stroke:none"
                   id="path4315"
                   inkscape:connector-curvature="0" /></g></g></g></g><g
           id="g4323"
           transform="translate(68.4675,213.0912)"><path
             d="M 0,0 -1.905,-5.627 -2.658,-9.43 c 6.18,-7.75 15.678,-12.753 26.303,-12.753 v 0 c 18.513,0 33.66,15.147 33.66,33.66 v 26.928 c 0,7.239 -2.339,13.945 -6.266,19.45 C 50.862,57.824 50.698,57.792 50.573,57.759 50.573,57.759 7.645,22.578 0,0"
             style="fill:#000718;fill-opacity:1;fill-rule:nonzero;stroke:none"
             id="path4325"
             inkscape:connector-curvature="0" /></g><g
           id="g4327"
           transform="translate(257.2068,260.5557)"><path
             d="m 0,0 c -4.128,0 -7.753,-2.119 -9.871,-5.322 l 0.002,0.003 h 4.977 c 8.128,0 13.333,-8.651 9.526,-15.832 -0.308,-0.575 -0.537,-1.182 -0.714,-1.804 -0.601,-0.212 -1.221,-0.385 -1.858,-0.509 5.55,0.979 9.774,5.798 9.774,11.628 C 11.836,-5.299 6.537,0 0,0"
             style="fill:#0054ee;fill-opacity:1;fill-rule:nonzero;stroke:none"
             id="path4329"
             inkscape:connector-curvature="0" /></g><g
           id="g4331"
           transform="translate(246.4266,253.5581)"><path
             d="M 0,0 C -0.1,-0.222 -0.179,-0.452 -0.265,-0.681 -0.179,-0.453 -0.1,-0.221 0,0"
             style="fill:#0054ee;fill-opacity:1;fill-rule:nonzero;stroke:none"
             id="path4333"
             inkscape:connector-curvature="0" /></g><g
           id="g4335"
           transform="translate(245.7366,251.5083)"><path
             d="M 0,0 C -0.053,-0.22 -0.11,-0.436 -0.151,-0.661 -0.11,-0.437 -0.054,-0.219 0,0"
             style="fill:#0054ee;fill-opacity:1;fill-rule:nonzero;stroke:none"
             id="path4337"
             inkscape:connector-curvature="0" /></g><g
           id="g4339"
           transform="translate(252.315,255.2365)"><path
             d="m 0,0 h -4.977 c -1.238,-1.87 -1.967,-4.106 -1.967,-6.517 0,-6.537 5.299,-11.836 11.836,-11.836 1.381,0 2.687,0.282 3.92,0.717 0.177,0.622 0.406,1.229 0.714,1.804 C 13.333,-8.651 8.127,0 0,0"
             style="fill:#000718;fill-opacity:1;fill-rule:nonzero;stroke:none"
             id="path4341"
             inkscape:connector-curvature="0" /></g><g
           id="g4343"
           transform="translate(169.7441,234.6659)"><path
             d="m 0,0 c 0,-4.352 -3.528,-7.881 -7.881,-7.881 -4.352,0 -7.88,3.529 -7.88,7.881 0,4.352 3.528,7.881 7.88,7.881 C -3.528,7.881 0,4.352 0,0"
             style="fill:#000718;fill-opacity:1;fill-rule:nonzero;stroke:none"
             id="path4345"
             inkscape:connector-curvature="0" /></g><g
           id="g4347"
           transform="translate(147.6595,102.2891)"><path
             d="M 0,0 C -0.001,-0.131 -0.001,-0.256 -0.002,-0.386 -0.001,-0.257 -0.001,-0.13 0,0"
             style="fill:#ff151a;fill-opacity:1;fill-rule:nonzero;stroke:none"
             id="path4349"
             inkscape:connector-curvature="0" /></g><g
           id="g4351"
           transform="translate(161.8634,226.7852)"><path
             d="m 0,0 c -4.352,0 -7.881,3.528 -7.881,7.881 0,4.352 3.529,7.88 7.881,7.88 4.352,0 7.881,-3.528 7.881,-7.88 C 7.881,3.528 4.352,0 0,0 m 95.343,10.099 c -6.536,0 -11.836,5.299 -11.836,11.836 0,2.41 0.73,4.646 1.967,6.516 h 4.978 -50.604 c -6.889,0 -13.442,3.311 -17.267,9.041 -4.257,6.377 -12.343,7.789 -20.524,7.789 0,0 -40.252,0 -44.88,-1.216 0.125,0.033 0.289,0.065 0.466,0.096 3.927,-5.505 6.266,-12.211 6.266,-19.45 V -2.217 c 0,-18.513 -15.147,-33.66 -33.66,-33.66 v 0 c -10.625,0 -20.123,5.003 -26.303,12.753 l 0.753,3.803 -18.501,-93.414 h 99.881 c 1.005,20.065 5.498,41.702 25.544,41.702 v 0 c 46,0 83.707,35.43 87.365,80.487 0.038,0.466 0.149,0.916 0.276,1.362 -1.233,-0.436 -2.539,-0.717 -3.921,-0.717"
             style="fill:#ff151a;fill-opacity:1;fill-rule:nonzero;stroke:none"
             id="path4353"
             inkscape:connector-curvature="0" /></g><g
           id="g4355"
           transform="translate(147.6975,106.162)"><path
             d="M 0,0 C -0.001,-0.095 -0.003,-0.19 -0.004,-0.285 -0.003,-0.19 -0.001,-0.095 0,0"
             style="fill:#ff151a;fill-opacity:1;fill-rule:nonzero;stroke:none"
             id="path4357"
             inkscape:connector-curvature="0" /></g><g
           id="g4359"
           transform="translate(48.0613,114.0498)"><path
             d="M 0,0 -3.074,-15.52 H 99.59 c 0,4.748 0.018,10.077 0.291,15.52 z"
             style="fill:#000718;fill-opacity:1;fill-rule:nonzero;stroke:none"
             id="path4361"
             inkscape:connector-curvature="0" /></g><g
           id="g4363"
           transform="translate(147.9424,114.0498)"><path
             d="M 0,0 C -0.273,-5.443 -0.291,-10.772 -0.291,-15.52 H -102.955 L -99.881,0 H -122.59 V -29.172 H 3.365 c 1.508,5.061 5.495,9.048 10.556,10.556 V 0 Z"
             style="fill:#0054ee;fill-opacity:1;fill-rule:nonzero;stroke:none"
             id="path4365"
             inkscape:connector-curvature="0" /></g><g
           id="g4367"
           transform="translate(161.8634,84.8776)"><path
             d="M 0,0 V 10.556 C -5.061,9.048 -9.048,5.061 -10.557,0 Z"
             style="fill:#000718;fill-opacity:1;fill-rule:nonzero;stroke:none"
             id="path4369"
             inkscape:connector-curvature="0" /></g><g
           id="g4371"
           transform="translate(65.8091,203.6615)"><path
             d="M 0,0 0.753,3.803 2.658,9.43 c 7.645,22.578 50.573,57.759 50.573,57.759 0.126,0.033 0.289,0.065 0.466,0.096 -6.117,8.574 -16.12,14.21 -27.394,14.21 v 0 c -18.513,0 -33.66,-15.147 -33.66,-33.66 V 20.907 C -7.357,9.102 -1.184,-1.314 8.079,-7.327 5.011,-5.33 2.277,-2.856 0,0"
             style="fill:#0054ee;fill-opacity:1;fill-rule:nonzero;stroke:none"
             id="path4373"
             inkscape:connector-curvature="0" /></g></g></g></g></svg>